# Blender v2.79 (sub 0) OBJ File: 'Level.blend'
# www.blender.org
v 10.000005 -4.000000 -9.999996
v 9.999995 -4.000000 10.000004
v -10.000002 -4.000000 9.999996
v -9.999999 -4.000000 -10.000002
v 2.000000 -3.980415 -2.000000
v 2.000000 0.019585 -2.000000
v 2.000000 -3.980415 -6.000000
v 2.000000 0.019585 -6.000000
v 6.000000 -3.980415 -2.000000
v 6.000000 0.019585 -2.000000
v 6.000000 -3.980415 -6.000000
v 6.000000 0.019585 -6.000000
v 2.000000 -3.980415 6.000000
v 2.000000 0.019585 6.000000
v 2.000000 -3.980415 1.999999
v 2.000000 0.019585 1.999999
v 6.000000 -3.980415 6.000000
v 6.000000 0.019585 6.000000
v 6.000000 -3.980415 1.999999
v 6.000000 0.019585 1.999999
v -6.000000 -3.980415 -2.000000
v -6.000000 0.019585 -2.000000
v -6.000000 -3.980415 -6.000000
v -6.000000 0.019585 -6.000000
v -2.000000 -3.980415 -2.000000
v -2.000000 0.019585 -2.000000
v -2.000000 -3.980415 -6.000000
v -2.000000 0.019585 -6.000000
v -6.000000 -3.980415 6.000000
v -6.000000 0.019585 6.000000
v -6.000000 -3.980415 1.999999
v -6.000000 0.019585 1.999999
v -2.000000 -3.980415 6.000000
v -2.000000 0.019585 6.000000
v -2.000000 -3.980415 1.999999
v -2.000000 0.019585 1.999999
v 10.000005 0.000000 -9.999996
v 9.999995 0.000000 10.000004
v -9.999999 0.000000 -10.000002
v -10.000002 0.000000 9.999996
v 16.000010 0.000000 -15.999992
v 15.999990 0.000000 16.000008
v -15.999998 0.000000 -16.000004
v -16.000004 0.000000 15.999992
v 16.000010 8.000000 -15.999992
v 15.999990 8.000000 16.000008
v -15.999998 8.000000 -16.000004
v -16.000004 8.000000 15.999992
v 10.000000 0.000000 -1.999996
v -10.000000 0.000000 -1.999996
v 16.000000 0.000000 -1.999992
v -16.000000 0.000000 -1.999992
v -16.000000 0.000000 2.000000
v -10.000000 0.000000 2.000000
v 10.000000 0.000000 2.000000
v 15.999998 0.000000 2.000000
v -14.000000 0.000000 -1.999994
v -13.999999 0.000000 2.000000
v 13.999999 0.000000 2.000000
v 14.000000 0.000000 -1.999994
v -10.000001 -4.000000 2.000000
v -10.000000 -4.000000 -2.000000
v 9.999998 -4.000000 2.000000
v 10.000001 -4.000000 -2.000000
vt -4.000000 -2.000000
vt -4.000000 -3.999999
vt 1.000000 -2.000000
vt 1.000000 2.004896
vt 2.000000 1.004896
vt 1.000000 1.004896
vt 1.000000 2.004896
vt 2.000000 1.004896
vt 1.000000 1.004896
vt 1.000000 2.004896
vt 0.000000 1.004896
vt 1.000000 1.004896
vt 1.000000 2.004896
vt 0.000000 1.004896
vt 1.000000 1.004896
vt 0.000000 1.000000
vt 1.000000 0.000000
vt 1.000000 1.000000
vt 1.000000 2.004896
vt 2.000000 1.004896
vt 1.000000 1.004896
vt 1.000000 2.004896
vt 2.000000 1.004896
vt 1.000000 1.004896
vt 1.000000 2.004896
vt 0.000000 1.004896
vt 1.000000 1.004896
vt 1.000000 2.004896
vt 0.000000 1.004896
vt 1.000000 1.004896
vt 0.000000 1.000000
vt 1.000000 0.000000
vt 1.000000 1.000000
vt 1.000000 2.004896
vt 2.000000 1.004896
vt 1.000000 1.004896
vt 1.000000 2.004896
vt 2.000000 1.004896
vt 1.000000 1.004896
vt 1.000000 2.004896
vt 0.000000 1.004896
vt 1.000000 1.004896
vt 1.000000 2.004896
vt 0.000000 1.004896
vt 1.000000 1.004896
vt 0.000000 1.000000
vt 1.000000 0.000000
vt 1.000000 1.000000
vt 1.000000 2.004896
vt 2.000000 1.004896
vt 1.000000 1.004896
vt 1.000000 2.004896
vt 2.000000 1.004896
vt 1.000000 1.004896
vt 1.000000 2.004896
vt 0.000000 1.004896
vt 1.000000 1.004896
vt 1.000000 2.004896
vt 0.000000 1.004896
vt 1.000000 1.004896
vt 0.000000 1.000000
vt 1.000000 0.000000
vt 1.000000 1.000000
vt 1.000000 2.000000
vt 5.999999 1.000000
vt 1.000000 1.000000
vt 0.999999 2.000000
vt 3.000000 1.000000
vt 0.999999 1.000000
vt 1.000000 2.000000
vt -1.000000 1.000000
vt 1.000000 1.000000
vt 1.000001 2.000000
vt -4.000000 1.000000
vt 1.000001 1.000000
vt 1.000000 3.000000
vt -0.500000 0.999998
vt 0.000000 0.999999
vt 6.000001 0.999999
vt -0.500000 2.500001
vt 1.000000 1.000000
vt -4.000000 1.000001
vt 2.499998 -0.500002
vt 0.999999 0.999999
vt 0.999999 1.000000
vt 0.000000 0.000000
vt 1.000000 0.000000
vt -7.000001 1.000000
vt 0.999998 3.000000
vt 0.999998 1.000000
vt -3.500000 1.000000
vt -7.000002 3.000000
vt 0.999998 3.000000
vt 5.499998 1.000000
vt 9.000001 3.000000
vt 1.000002 3.000000
vt 9.000002 1.000000
vt 1.000000 3.000000
vt 1.000000 1.000000
vt 1.000000 -1.000001
vt 2.000000 -1.000001
vt 1.000001 0.999999
vt 1.000000 3.000000
vt 0.000000 3.000000
vt 1.000000 1.000001
vt 1.500000 1.000000
vt 1.000000 1.999998
vt 1.000000 1.000000
vt 0.500000 1.000000
vt -0.500001 -1.000001
vt 1.000000 1.000000
vt 1.000000 1.000000
vt 0.000000 1.000000
vt 0.000000 0.000000
vt 1.000000 0.000000
vt 1.500000 0.999998
vt 1.000000 1.000000
vt 1.000000 0.000000
vt 0.000000 1.000000
vt 1.000000 2.000000
vt -0.999999 1.000000
vt 1.000000 1.000000
vt 1.000000 1.000000
vt -0.000000 0.000000
vt 0.000000 1.000000
vt 1.000000 1.000000
vt 2.000000 1.999999
vt 1.000000 2.000000
vt 1.000000 1.000000
vt 2.999999 2.000000
vt 2.999999 1.000000
vt 2.000000 0.000000
vt 2.000000 1.000000
vt 1.000000 -1.000000
vt -4.000000 -1.000000
vt 0.999999 -4.000001
vt 2.000000 2.004896
vt 2.000000 2.004896
vt 0.000000 2.004896
vt 0.000000 2.004896
vt 0.000000 0.000000
vt 2.000000 2.004896
vt 2.000000 2.004896
vt 0.000000 2.004896
vt 0.000000 2.004896
vt 0.000000 0.000000
vt 2.000000 2.004896
vt 2.000000 2.004896
vt 0.000000 2.004896
vt 0.000000 2.004896
vt 0.000000 0.000000
vt 2.000000 2.004896
vt 2.000000 2.004896
vt 0.000000 2.004896
vt 0.000000 2.004896
vt 0.000000 0.000000
vt 5.999999 2.000000
vt 3.000000 2.000000
vt -1.000001 2.000000
vt -4.000000 2.000000
vt 1.000000 0.999999
vt -0.500000 4.500001
vt 7.500002 2.499998
vt -5.500001 -0.499998
vt -7.000001 3.000000
vt 0.999998 1.000000
vt -2.500002 1.000000
vt -7.000002 1.000000
vt 1.000002 1.000000
vt 4.500000 1.000000
vt 9.000001 1.000000
vt 9.000002 3.000000
vt 2.500002 2.499998
vt 2.500000 -1.000002
vt -0.500001 -0.499998
vt -0.500000 3.000000
vt 1.500000 1.999999
vt 0.999998 -2.500002
vt -0.500000 1.000000
vt 1.500000 0.000000
vt -0.999999 2.000000
vt 2.000000 1.000000
vt 0.999999 2.000000
vn 0.0000 1.0000 0.0000
vn -1.0000 0.0000 0.0000
vn 0.0000 0.0000 -1.0000
vn 1.0000 0.0000 0.0000
vn 0.0000 0.0000 1.0000
vn 0.7071 0.7071 0.0000
vn -0.7071 0.7071 -0.0000
s off
f 61/1/1 3/2/1 63/3/1
f 6/4/2 7/5/2 5/6/2
f 8/7/3 11/8/3 7/9/3
f 12/10/4 9/11/4 11/12/4
f 10/13/5 5/14/5 9/15/5
f 8/16/1 10/17/1 12/18/1
f 14/19/2 15/20/2 13/21/2
f 16/22/3 19/23/3 15/24/3
f 20/25/4 17/26/4 19/27/4
f 18/28/5 13/29/5 17/30/5
f 16/31/1 18/32/1 20/33/1
f 22/34/2 23/35/2 21/36/2
f 24/37/3 27/38/3 23/39/3
f 28/40/4 25/41/4 27/42/4
f 26/43/5 21/44/5 25/45/5
f 24/46/1 26/47/1 28/48/1
f 30/49/2 31/50/2 29/51/2
f 32/52/3 35/53/3 31/54/3
f 36/55/4 33/56/4 35/57/4
f 34/58/5 29/59/5 33/60/5
f 32/61/1 34/62/1 36/63/1
f 40/64/3 2/65/3 3/66/3
f 38/67/2 63/68/2 2/69/2
f 39/70/4 62/71/4 4/72/4
f 37/73/5 4/74/5 1/75/5
f 39/76/1 52/77/1 57/78/1
f 37/79/1 43/80/1 39/81/1
f 40/82/1 42/83/1 38/84/1
f 57/85/6 61/86/6 62/87/6
f 44/88/3 46/89/3 42/90/3
f 56/91/2 46/92/2 45/93/2
f 52/94/4 47/95/4 48/96/4
f 41/97/5 47/98/5 43/99/5
f 49/100/1 60/101/1 37/102/1
f 54/103/1 58/104/1 40/105/1
f 58/106/1 52/107/1 53/108/1
f 59/109/1 38/110/1 56/111/1
f 60/112/5 49/113/5 64/114/5
f 59/115/1 51/116/1 60/112/1
f 54/117/3 61/118/3 58/119/3
f 54/120/4 3/121/4 61/122/4
f 59/123/3 63/124/3 55/125/3
f 63/126/7 60/127/7 64/128/7
f 64/129/2 37/130/2 1/131/2
f 57/85/5 62/132/5 50/133/5
f 64/134/1 1/75/1 62/135/1
f 62/135/1 61/1/1 63/3/1
f 1/75/1 4/74/1 62/135/1
f 3/2/1 2/136/1 63/3/1
f 63/3/1 64/134/1 62/135/1
f 6/4/2 8/137/2 7/5/2
f 8/7/3 12/138/3 11/8/3
f 12/10/4 10/139/4 9/11/4
f 10/13/5 6/140/5 5/14/5
f 8/16/1 6/141/1 10/17/1
f 14/19/2 16/142/2 15/20/2
f 16/22/3 20/143/3 19/23/3
f 20/25/4 18/144/4 17/26/4
f 18/28/5 14/145/5 13/29/5
f 16/31/1 14/146/1 18/32/1
f 22/34/2 24/147/2 23/35/2
f 24/37/3 28/148/3 27/38/3
f 28/40/4 26/149/4 25/41/4
f 26/43/5 22/150/5 21/44/5
f 24/46/1 22/151/1 26/47/1
f 30/49/2 32/152/2 31/50/2
f 32/52/3 36/153/3 35/53/3
f 36/55/4 34/154/4 33/56/4
f 34/58/5 30/155/5 29/59/5
f 32/61/1 30/156/1 34/62/1
f 40/64/3 38/157/3 2/65/3
f 38/67/2 55/158/2 63/68/2
f 39/70/4 50/159/4 62/71/4
f 37/73/5 39/160/5 4/74/5
f 57/78/1 50/161/1 39/76/1
f 39/76/1 43/162/1 52/77/1
f 37/79/1 41/163/1 43/80/1
f 40/82/1 44/164/1 42/83/1
f 57/85/6 58/119/6 61/86/6
f 44/88/3 48/165/3 46/89/3
f 45/93/2 41/166/2 51/167/2
f 56/91/2 42/168/2 46/92/2
f 45/93/2 51/167/2 56/91/2
f 48/96/4 44/169/4 53/170/4
f 52/94/4 43/171/4 47/95/4
f 48/96/4 53/170/4 52/94/4
f 41/97/5 45/172/5 47/98/5
f 41/173/1 37/102/1 51/174/1
f 60/101/1 51/174/1 37/102/1
f 44/175/1 40/105/1 53/176/1
f 58/104/1 53/176/1 40/105/1
f 58/106/1 57/177/1 52/107/1
f 42/178/1 56/111/1 38/110/1
f 59/109/1 55/179/1 38/110/1
f 59/115/1 56/180/1 51/116/1
f 54/120/4 40/181/4 3/121/4
f 63/126/7 59/182/7 60/127/7
f 64/129/2 49/183/2 37/130/2
